<?xml version="1.0" encoding="UTF-8" standalone="no"?>
<!-- Created with Inkscape (http://www.inkscape.org/) -->

<svg
   xmlns:sketch="http://www.bohemiancoding.com/sketch/ns"
   xmlns:dc="http://purl.org/dc/elements/1.1/"
   xmlns:cc="http://creativecommons.org/ns#"
   xmlns:rdf="http://www.w3.org/1999/02/22-rdf-syntax-ns#"
   xmlns:svg="http://www.w3.org/2000/svg"
   xmlns="http://www.w3.org/2000/svg"
   xmlns:sodipodi="http://sodipodi.sourceforge.net/DTD/sodipodi-0.dtd"
   xmlns:inkscape="http://www.inkscape.org/namespaces/inkscape"
   width="200"
   height="200"
   viewBox="0 0 200 200"
   id="svg2"
   version="1.1"
   inkscape:version="0.91 r13725"
   sodipodi:docname="majeedr_blue.svg">
  <defs
     id="defs4" />
  <sodipodi:namedview
     id="base"
     pagecolor="#ffffff"
     bordercolor="#666666"
     borderopacity="1.0"
     inkscape:pageopacity="0.0"
     inkscape:pageshadow="2"
     inkscape:zoom="2.5226415"
     inkscape:cx="76.163052"
     inkscape:cy="85.714286"
     inkscape:document-units="px"
     inkscape:current-layer="layer1"
     showgrid="false"
     units="px"
     inkscape:window-width="1680"
     inkscape:window-height="966"
     inkscape:window-x="0"
     inkscape:window-y="1"
     inkscape:window-maximized="1" />
  <metadata
     id="metadata7">
    <rdf:RDF>
      <cc:Work
         rdf:about="">
        <dc:format>image/svg+xml</dc:format>
        <dc:type
           rdf:resource="http://purl.org/dc/dcmitype/StillImage" />
        <dc:title></dc:title>
      </cc:Work>
    </rdf:RDF>
  </metadata>
  <g
     inkscape:label="Layer 1"
     inkscape:groupmode="layer"
     id="layer1"
     transform="translate(0,-852.36216)">
    <g
       id="g4187"
       sketch:type="MSPage"
       transform="translate(0,852.36216)"
       style="fill:none;fill-rule:evenodd;stroke:none;stroke-width:1">
      <path
         sketch:type="MSShapeGroup"
         id="Majeedr"
         d="M 100,200 C 155.22848,200 200,155.22848 200,100 200,44.771526 155.22848,0 100,0 44.771526,0 0,44.771526 0,100 0,155.22848 44.771526,200 100,200 l 0,0 0,0 z m 17.96915,-37.52837 c -3.6721,-0.20226 -7.29702,-0.99252 -10.22306,-2.22873 -3.89849,-1.64706 -7.1205,-4.35491 -9.345344,-7.85406 -2.32988,-3.66434 -3.71853,-8.17751 -4.287754,-13.9354 -0.277856,-2.8106 -0.260976,-7.39716 0.03789,-10.29568 0.119206,-1.15612 0.356396,-2.90738 0.527084,-3.8917 0.335014,-1.93193 1.075728,-5.03428 1.497008,-6.26994 0.143792,-0.42175 0.261438,-0.81835 0.261438,-0.88133 0,-0.063 -0.14956,-0.27775 -0.332352,-0.47725 -0.908568,-0.99159 -1.94373,-2.88045 -2.573296,-4.69548 -0.814496,-2.3482 -1.167098,-4.13436 -2.371166,-12.011634 -0.26327,-1.722382 -0.4876,-3.163576 -0.498504,-3.202654 -0.01092,-0.03908 -0.168758,0.597964 -0.350788,1.415656 -0.864864,3.885052 -2.358704,6.933682 -4.886742,9.972852 -5.446902,6.5482 -13.058796,12.56674 -20.663584,16.33821 -5.27257,2.61483 -9.894198,3.87733 -14.262854,3.89623 -1.755204,0.008 -2.41883,-0.0824 -3.49129,-0.47358 -2.922562,-1.06591 -5.026882,-3.99019 -5.78686,-8.04173 -0.400578,-2.13554 -0.373692,-6.08192 0.06371,-9.35191 0.446496,-3.33793 1.064126,-6.0526 2.137478,-9.39481 1.106796,-3.446342 2.274622,-6.13451 2.665034,-6.13451 0.04579,0 0.125616,0.09298 0.177388,0.20661 0.136142,0.298832 6e-4,0.972362 -0.779754,3.868764 -1.037398,3.851506 -1.689834,6.903716 -2.08158,9.737996 -0.26377,1.90839 -0.261508,4.75909 0.0047,5.89797 0.786802,3.36632 3.02558,4.92982 7.04302,4.91865 6.294186,-0.0175 12.975774,-2.33963 20.231478,-7.0313 5.042672,-3.26069 9.361564,-6.79452 12.561672,-10.27827 1.41887,-1.54464 1.958414,-2.19957 3.541026,-4.298362 1.731162,-2.295784 1.720868,-2.266488 1.710118,-4.8667 -0.009,-2.187032 -0.177888,-3.522922 -0.896046,-7.089326 -1.612954,-8.00999 -3.800696,-14.234478 -9.133226,-25.985556 l -0.83708,-1.844642 0.04673,-0.815076 c 0.07992,-1.394238 0.926472,-6.452308 1.233734,-7.371492 0.148046,-0.442888 0.418442,-0.779256 0.626414,-0.779256 0.531164,0 3.228868,4.096528 5.113302,7.76466 3.253734,6.333542 5.568432,13.56122 7.583652,23.68007 0.272536,1.368468 0.516196,2.43021 0.541466,2.359428 0.02528,-0.07078 0.377,-1.11322 0.78163,-2.31653 0.404628,-1.203306 1.002424,-2.902094 1.328442,-3.775084 0.447752,-1.19897 0.563448,-1.594036 0.472942,-1.61499 -0.17261,-0.03997 -0.158082,-0.07702 0.238394,-0.607942 2.081824,-2.787796 9.9152,-8.83058 16.58488,-12.793824 4.01803,-2.387588 8.06633,-4.344188 11.71003,-5.65963 0.68416,-0.246992 1.27182,-0.474558 1.30591,-0.505702 0.0341,-0.03115 -0.43581,-1.040282 -1.04423,-2.242524 -1.69368,-3.34676 -1.75971,-3.570324 -1.76051,-5.96098 -8e-4,-1.465708 0.027,-1.83481 0.18829,-2.531024 0.40218,-1.735566 1.20584,-3.242768 2.33765,-4.384064 1.34444,-1.355724 2.71758,-1.93132 4.83434,-2.026464 1.61148,-0.07243 2.57427,0.141158 4.51887,1.002484 2.02135,0.89532 5.13522,2.879262 7.80669,4.973878 1.11445,0.87381 2.62414,2.403666 3.12989,3.171684 0.48622,0.738364 0.81634,1.58171 0.81634,2.08542 0,0.510268 -0.93373,3.784812 -1.62171,5.68724 l -0.58951,1.63015 -3.24812,1.000718 c -1.78646,0.550394 -4.57997,1.42196 -6.20779,1.936814 l -2.95968,0.936096 -0.0502,1.495082 c -0.0276,0.822292 -0.0953,1.654124 -0.15042,1.848516 -0.23746,0.837046 -0.73102,1.042634 -1.20552,0.50215 -0.35598,-0.40549 -0.55998,-0.822714 -0.90475,-1.850452 -0.159,-0.473982 -0.30935,-0.882038 -0.3341,-0.906794 -0.0888,-0.08876 -2.90035,1.0356 -5.67647,2.270032 -9.09608,4.044652 -14.40023,7.033908 -17.88148,10.077454 l -0.95683,0.836522 5.64811,0 c 6.24263,0 11.5664,0.09169 19.96743,0.34388 10.93516,0.328264 14.63833,0.381456 18.14661,0.26065 5.64957,-0.194544 5.67131,-0.194796 6.08704,-0.06988 0.25408,0.07634 0.42795,0.192738 0.51224,0.34292 0.12127,0.216102 0.0708,0.396296 -1.01974,3.64302 -0.63103,1.87862 -1.20373,3.531498 -1.27268,3.673062 -0.17684,0.363132 -0.5252,0.718034 -0.88805,0.904736 -0.17075,0.08786 -3.33631,0.95634 -7.03459,1.929964 -8.78154,2.311858 -11.72728,3.223206 -16.1608,4.99979 -8.21409,3.291534 -14.25654,7.409464 -19.85184,13.529054 -1.77561,1.94198 -4.91697,5.88667 -4.78943,6.01423 0.10539,0.1054 2.48508,0.13333 3.4609,0.0406 3.49582,-0.33215 6.22526,-1.22852 8.9439,-2.93724 1.51827,-0.95427 2.94436,-2.19767 6.78873,-5.91907 1.25048,-1.21048 2.50522,-2.439386 2.78832,-2.730908 0.64051,-0.659578 1.20806,-0.965132 1.79269,-0.965132 0.35922,0 0.46192,0.03755 0.62673,0.229176 0.25049,0.29125 0.25624,0.727392 0.0253,1.917144 -0.66219,3.41102 0.81753,6.812 3.38418,7.77819 0.78523,0.2956 1.72218,0.36562 6.35299,0.47483 6.328,0.14924 10.13123,0.54779 12.26765,1.28558 1.02173,0.35284 2.53851,1.14147 3.60309,1.87337 3.13346,2.15427 5.07575,5.1726 5.83593,9.06911 0.67072,3.43792 0.38714,8.26795 -0.7304,12.44061 -1.72096,6.4257 -5.43769,12.36446 -11.05476,17.66381 -6.07225,5.72878 -12.53016,9.25977 -19.61553,10.72516 -3.12963,0.64726 -6.34502,0.85408 -10.08006,0.64837 l -1e-5,0 0,0 0,0 0,0 z m 6.77723,-9.09754 c 6.24601,-0.51768 13.14871,-3.19035 19.55219,-7.57045 2.46132,-1.68359 4.65524,-3.5205 6.74274,-5.64551 2.91144,-2.96376 4.62883,-5.34703 5.52249,-7.66366 0.52369,-1.35759 0.65083,-2.04381 0.63909,-3.44921 -0.0367,-4.38787 -2.38524,-7.64106 -6.84886,-9.48688 -1.55464,-0.64289 -2.43556,-0.86999 -4.54675,-1.17218 -2.53032,-0.36218 -4.92915,-0.51894 -9.43666,-0.6167 -4.02285,-0.0872 -4.71567,-0.14044 -5.84771,-0.44901 -3.24498,-0.88449 -5.05086,-3.5053 -5.47554,-7.94644 -0.13474,-1.40911 -0.18729,-1.50866 -0.75765,-1.43543 -0.4651,0.0597 -0.88239,0.38079 -1.61071,1.23931 -1.18023,1.39121 -3.36931,3.83145 -4.278,4.76882 -2.64308,2.72652 -6.13904,4.81749 -9.39669,5.62026 -1.52027,0.37463 -2.53539,0.46943 -4.41427,0.41224 -2.03533,-0.062 -3.37609,-0.28185 -4.733716,-0.77633 l -0.826578,-0.30106 -0.43218,1.2175 c -0.575466,1.62116 -1.010024,3.29796 -1.278916,4.9349 -0.199368,1.2137 -0.220876,1.57443 -0.220866,3.70408 2e-5,4.95093 0.763776,8.9339 2.414952,12.59391 3.062804,6.78905 9.112444,10.83966 17.715684,11.86177 2.61248,0.31037 5.07252,0.36275 7.51795,0.16007 l 0,0 0,0 0,0 0,0 z m -13.1643,-20.75599 c -0.97718,-0.70844 -2.60021,-1.83011 -3.60671,-2.49261 -1.00652,-0.66249 -1.85042,-1.25769 -1.87535,-1.32267 -0.0659,-0.17172 2.91332,-6.31848 3.22418,-6.65218 0.22505,-0.24158 0.4449,-0.21349 1.0885,0.1391 1.30554,0.71524 4.74241,3.08389 6.03322,4.15802 l 0.32122,0.2673 1.07284,-2.20779 c 0.59005,-1.21429 1.07283,-2.2352 1.07283,-2.26869 0,-0.0335 0.11606,-0.22112 0.25791,-0.41696 0.34756,-0.47986 0.55044,-0.46665 1.50515,0.0979 1.7968,1.06258 5.27156,3.51727 5.9884,4.23041 0.30514,0.30357 0.32699,0.35698 0.2816,0.68815 -0.0831,0.6061 -0.39126,1.39025 -1.09189,2.7782 -0.70948,1.40545 -1.78417,3.25823 -2.07773,3.58204 -0.0963,0.10618 -0.23904,0.19305 -0.3173,0.19305 -0.0782,0 -0.78683,-0.46407 -1.57465,-1.03125 -2.36141,-1.70009 -5.38285,-3.71321 -5.45342,-3.63351 -0.0363,0.041 -0.31166,0.59581 -0.61182,1.23286 -1.08895,2.31108 -2.0729,3.94668 -2.37426,3.94668 -0.0473,0 -0.88553,-0.57964 -1.86272,-1.28808 l 0,0 0,0 0,0 0,0 z m -10.83604,-25.2178 c 5.1337,-9.083628 13.02085,-16.592964 22.69144,-21.604492 l 1.78073,-0.922816 -0.60051,-0.05369 c -0.33028,-0.02953 -1.99028,-0.05852 -3.68888,-0.06442 -2.85887,-0.0099 -8.27318,-0.14516 -14.19787,-0.354598 -1.34473,-0.04754 -4.41378,-0.107642 -6.820132,-0.133566 -4.72852,-0.05095 -6.193708,-0.123974 -6.695676,-0.333736 -0.177306,-0.07409 -0.33301,-0.12407 -0.34601,-0.111068 -0.013,0.013 0.03215,0.312728 0.10033,0.666058 0.321214,1.66452 1.81702,9.981648 2.437802,13.554914 0.808214,4.652114 1.006852,5.598364 1.467862,6.992484 0.570386,1.72486 1.29944,3.03579 2.257036,4.05842 l 0.426,0.45493 0.122722,-0.24044 c 0.0675,-0.13224 0.546816,-0.99083 1.065156,-1.90798 l 0,0 0,0 0,0 0,0 z m 32.66491,-54.767334 c 1.78969,-0.652562 3.00257,-1.193472 3.00257,-1.339072 0,-0.27734 -0.43153,-0.771262 -1.00549,-1.150858 -1.22794,-0.812128 -3.88826,-1.98527 -5.76938,-2.544172 -2.24429,-0.666802 -4.12018,-0.69238 -4.12018,-0.05618 0,0.318952 0.75776,2.046084 1.98782,4.530732 l 1.09198,2.205752 1.99884,-0.674524 c 1.09937,-0.370988 2.36559,-0.808242 2.81384,-0.971682 l 0,0 0,0 0,0 0,0 z m 3.71364,49.592544 c -0.98797,-0.71963 -2.61284,-1.84894 -3.61084,-2.509578 -1.5921,-1.053928 -1.81477,-1.228812 -1.81654,-1.426736 -0.002,-0.203754 2.54925,-5.578728 3.01988,-6.36271 0.26442,-0.440486 0.49535,-0.481704 1.08603,-0.19385 0.99129,0.483082 5.08068,3.29631 6.20805,4.270724 0.44126,0.381388 0.49328,0.461186 0.49328,0.756624 0,0.815586 -0.92619,2.883932 -2.38777,5.332296 -0.61595,1.03181 -0.9397,1.44163 -1.13885,1.44163 -0.0313,0 -0.86526,-0.58878 -1.85324,-1.3084 l 0,0 0,0 0,0 0,0 z"
         inkscape:connector-curvature="0"
         style="fill:#164161" />
    </g>
  </g>
</svg>
